<svg xmlns="http://www.w3.org/2000/svg" xmlns:xlink="http://www.w3.org/1999/xlink" width="190" zoomAndPan="magnify" viewBox="0 0 142.5 37.5" height="50" preserveAspectRatio="xMidYMid meet" version="1.0"><defs><g/></defs><g fill="#ffffff" fill-opacity="1"><g transform="translate(2.023026, 24.617438)"><g><path d="M 10.3125 0 L 10.3125 -13.304688 L 0.320312 -13.304688 L 0.320312 -10.253906 L 0.976562 -10.253906 L 0.976562 -3.03125 L 0.320312 -3.03125 L 0.320312 0 Z M 6.980469 -3.03125 L 3.652344 -3.03125 L 3.652344 -10.253906 L 6.980469 -10.253906 Z M 6.980469 -3.03125 "/></g></g></g><g fill="#ffffff" fill-opacity="1"><g transform="translate(15.826132, 24.617438)"><g><path d="M 10.472656 0 L 10.472656 -3.03125 L 3.851562 -3.03125 L 3.851562 -5.226562 L 10.472656 -5.226562 L 10.472656 -8.160156 L 3.851562 -8.160156 L 3.851562 -10.253906 L 10.472656 -10.253906 L 10.472656 -13.304688 L 0.519531 -13.304688 L 0.519531 0 Z M 10.472656 0 "/></g></g></g><g fill="#ffffff" fill-opacity="1"><g transform="translate(29.788802, 24.617438)"><g><path d="M 10.953125 -10.253906 L 10.953125 -13.304688 L 6.960938 -13.304688 L 6.960938 -3.03125 L 4.289062 -3.03125 L 4.289062 -13.304688 L 0.300781 -13.304688 L 0.300781 -10.253906 L 0.957031 -10.253906 L 0.957031 0 L 10.292969 0 L 10.292969 -10.253906 Z M 10.953125 -10.253906 "/></g></g></g><g fill="#ffffff" fill-opacity="1"><g transform="translate(44.010767, 24.617438)"><g><path d="M 10.292969 -10.253906 L 10.292969 -13.304688 L 0.300781 -13.304688 L 0.300781 -10.253906 L 3.652344 -10.253906 L 3.652344 0 L 6.980469 0 L 6.980469 -10.253906 Z M 10.292969 -10.253906 "/></g></g></g><g fill="#ffffff" fill-opacity="1"><g transform="translate(57.574528, 24.617438)"><g><path d="M 10.511719 0 L 8.558594 -3.710938 L 10.511719 -3.710938 L 10.511719 -13.304688 L 0.519531 -13.304688 L 0.519531 0 L 3.851562 0 L 3.851562 -3.710938 L 5.285156 -3.710938 L 7.179688 0 Z M 7.179688 -6.742188 L 3.851562 -6.742188 L 3.851562 -10.253906 L 7.179688 -10.253906 Z M 7.179688 -6.742188 "/></g></g></g><g fill="#ffffff" fill-opacity="1"><g transform="translate(71.577091, 24.617438)"><g><path d="M 10.472656 0 L 10.472656 -3.03125 L 3.851562 -3.03125 L 3.851562 -5.226562 L 10.472656 -5.226562 L 10.472656 -8.160156 L 3.851562 -8.160156 L 3.851562 -10.253906 L 10.472656 -10.253906 L 10.472656 -13.304688 L 0.519531 -13.304688 L 0.519531 0 Z M 10.472656 0 "/></g></g></g><g fill="#ffffff" fill-opacity="1"><g transform="translate(85.539759, 24.617438)"><g><path d="M 10.511719 -10.253906 L 10.511719 -13.304688 L 7.179688 -13.304688 L 7.179688 -8.160156 L 3.851562 -8.160156 L 3.851562 -13.304688 L 0.519531 -13.304688 L 0.519531 0 L 3.851562 0 L 3.851562 -5.226562 L 5.265625 -5.226562 L 7.300781 0 L 10.472656 0 L 8.359375 -5.226562 L 9.855469 -5.226562 L 9.855469 -10.253906 Z M 10.511719 -10.253906 "/></g></g></g><g fill="#ffffff" fill-opacity="1"><g transform="translate(99.322922, 24.617438)"><g><path d="M 10.511719 -10.253906 L 10.511719 -13.304688 L 7.179688 -13.304688 L 7.179688 -8.160156 L 3.851562 -8.160156 L 3.851562 -13.304688 L 0.519531 -13.304688 L 0.519531 0 L 3.851562 0 L 3.851562 -5.226562 L 5.265625 -5.226562 L 7.300781 0 L 10.472656 0 L 8.359375 -5.226562 L 9.855469 -5.226562 L 9.855469 -10.253906 Z M 10.511719 -10.253906 "/></g></g></g><g fill="#ffffff" fill-opacity="1"><g transform="translate(113.106086, 24.617438)"><g><path d="M 10.472656 0 L 10.472656 -3.03125 L 3.851562 -3.03125 L 3.851562 -5.226562 L 10.472656 -5.226562 L 10.472656 -8.160156 L 3.851562 -8.160156 L 3.851562 -10.253906 L 10.472656 -10.253906 L 10.472656 -13.304688 L 0.519531 -13.304688 L 0.519531 0 Z M 10.472656 0 "/></g></g></g><g fill="#ffffff" fill-opacity="1"><g transform="translate(127.068753, 24.617438)"><g><path d="M 10.511719 0 L 8.558594 -3.710938 L 10.511719 -3.710938 L 10.511719 -13.304688 L 0.519531 -13.304688 L 0.519531 0 L 3.851562 0 L 3.851562 -3.710938 L 5.285156 -3.710938 L 7.179688 0 Z M 7.179688 -6.742188 L 3.851562 -6.742188 L 3.851562 -10.253906 L 7.179688 -10.253906 Z M 7.179688 -6.742188 "/></g></g></g></svg>