<svg xmlns="http://www.w3.org/2000/svg" xmlns:xlink="http://www.w3.org/1999/xlink" width="500" zoomAndPan="magnify" viewBox="0 0 375 374.999991" height="500" preserveAspectRatio="xMidYMid meet" version="1.0"><defs><clipPath id="2707035305"><path d="M 46.777344 147 L 185 147 L 185 243 L 46.777344 243 Z M 46.777344 147 " clip-rule="nonzero"/></clipPath><clipPath id="7036768ba0"><path d="M 46.777344 142.867188 L 163 142.867188 L 163 247.117188 L 46.777344 247.117188 Z M 46.777344 142.867188 " clip-rule="nonzero"/></clipPath><clipPath id="7057e91c0f"><path d="M 46.777344 142.867188 L 164 142.867188 L 164 247.117188 L 46.777344 247.117188 Z M 46.777344 142.867188 " clip-rule="nonzero"/></clipPath></defs><path fill="#00d8ff" d="M 114.011719 194.902344 C 114.011719 195.558594 113.949219 196.210938 113.820312 196.855469 C 113.695312 197.5 113.503906 198.125 113.253906 198.730469 C 113.003906 199.339844 112.695312 199.914062 112.332031 200.460938 C 111.96875 201.007812 111.554688 201.515625 111.089844 201.980469 C 110.625 202.445312 110.121094 202.859375 109.578125 203.222656 C 109.035156 203.589844 108.457031 203.898438 107.851562 204.148438 C 107.246094 204.398438 106.625 204.589844 105.980469 204.71875 C 105.339844 204.847656 104.6875 204.910156 104.035156 204.910156 C 103.378906 204.910156 102.730469 204.847656 102.085938 204.71875 C 101.445312 204.589844 100.820312 204.398438 100.214844 204.148438 C 99.609375 203.898438 99.035156 203.589844 98.488281 203.222656 C 97.945312 202.859375 97.441406 202.445312 96.976562 201.980469 C 96.515625 201.515625 96.101562 201.007812 95.738281 200.460938 C 95.371094 199.914062 95.066406 199.339844 94.8125 198.730469 C 94.5625 198.125 94.375 197.5 94.246094 196.855469 C 94.117188 196.210938 94.054688 195.558594 94.054688 194.902344 C 94.054688 194.242188 94.117188 193.59375 94.246094 192.949219 C 94.375 192.304688 94.5625 191.679688 94.8125 191.070312 C 95.066406 190.464844 95.371094 189.886719 95.738281 189.339844 C 96.101562 188.792969 96.515625 188.289062 96.976562 187.824219 C 97.441406 187.359375 97.945312 186.945312 98.488281 186.578125 C 99.035156 186.214844 99.609375 185.90625 100.214844 185.652344 C 100.820312 185.402344 101.445312 185.210938 102.085938 185.085938 C 102.730469 184.957031 103.378906 184.890625 104.035156 184.890625 C 104.6875 184.890625 105.339844 184.957031 105.980469 185.085938 C 106.625 185.210938 107.246094 185.402344 107.851562 185.652344 C 108.457031 185.90625 109.035156 186.214844 109.578125 186.578125 C 110.121094 186.945312 110.625 187.359375 111.089844 187.824219 C 111.554688 188.289062 111.96875 188.792969 112.332031 189.339844 C 112.695312 189.886719 113.003906 190.464844 113.253906 191.070312 C 113.503906 191.679688 113.695312 192.304688 113.820312 192.949219 C 113.949219 193.59375 114.011719 194.242188 114.011719 194.902344 Z M 114.011719 194.902344 " fill-opacity="1" fill-rule="nonzero"/><g clip-path="url(#2707035305)"><path stroke-linecap="butt" transform="matrix(0.198918, 0, 0, 0.199515, 50.419487, 147.490464)" fill="none" stroke-linejoin="miter" d="M 269.53619 135.630562 C 336.892689 135.630562 399.457648 145.302458 446.646472 161.533233 C 503.477291 181.111971 538.431976 210.77376 538.431976 237.63579 C 538.431976 265.613807 501.39572 297.135577 440.342846 317.360414 C 394.194807 332.651409 333.475771 340.639534 269.53619 340.639534 C 203.986338 340.639534 141.892679 333.140877 95.234066 317.184205 C 36.184213 296.998525 0.620767 265.085181 0.620767 237.63579 C 0.620767 210.989127 33.984818 181.562282 90.030138 162.022701 C 137.395699 145.498246 201.512017 135.630562 269.516553 135.630562 Z M 269.53619 135.630562 " stroke="#00d8ff" stroke-width="24" stroke-opacity="1" stroke-miterlimit="4"/></g><g clip-path="url(#7036768ba0)"><path stroke-linecap="butt" transform="matrix(0.198918, 0, 0, 0.199515, 50.419487, 147.490464)" fill="none" stroke-linejoin="miter" d="M 180.735581 186.926857 C 214.394193 128.562637 254.022594 79.204637 291.667611 46.449407 C 337.010514 6.97867 380.154021 -8.488534 403.424415 4.942481 C 427.676682 18.9217 436.474266 66.752559 423.493903 129.737361 C 413.694809 177.352854 390.267315 233.954987 358.317162 289.343239 C 325.561873 346.121581 288.073956 396.164837 250.939512 428.606807 C 203.9667 469.683 158.545247 484.543263 134.764279 470.818567 C 111.69026 457.524604 102.853401 413.903174 113.928931 355.59769 C 123.276363 306.318005 146.762769 245.85886 180.735581 186.926857 Z M 180.735581 186.926857 " stroke="#00d8ff" stroke-width="24" stroke-opacity="1" stroke-miterlimit="4"/></g><g clip-path="url(#7057e91c0f)"><path stroke-linecap="butt" transform="matrix(0.198918, 0, 0, 0.199515, 50.419487, 147.490464)" fill="none" stroke-linejoin="miter" d="M 180.814131 289.48029 C 147.076969 231.194385 124.101137 172.203645 114.518055 123.23722 C 102.971226 64.226902 111.120774 19.117488 134.37153 5.666894 C 158.60416 -8.371061 204.437999 7.898871 252.510509 50.6001 C 288.879092 82.88544 326.209909 131.440711 358.238612 186.770227 C 391.072451 243.509411 415.69783 300.973009 425.261274 349.352073 C 437.377589 410.55521 427.578495 457.328816 403.817164 471.09267 C 380.762783 484.445369 338.561874 470.30952 293.572445 431.582775 C 255.554316 398.886281 214.904767 348.333978 180.814131 289.460711 Z M 180.814131 289.48029 " stroke="#00d8ff" stroke-width="24" stroke-opacity="1" stroke-miterlimit="4"/></g><path fill="#00d8ff" d="M 214.804688 220.472656 L 202.574219 201.941406 C 208.753906 201.390625 214.324219 196.898438 214.324219 188.691406 C 214.324219 180.339844 208.414062 174.996094 200.125 174.996094 L 181.921875 174.996094 L 181.921875 220.441406 L 187.5625 220.441406 L 187.5625 202.382812 L 196.597656 202.382812 L 208.144531 220.441406 Z M 199.453125 197.445312 L 187.566406 197.445312 L 187.566406 180.070312 L 199.453125 180.070312 C 204.820312 180.070312 208.488281 183.613281 208.488281 188.722656 C 208.488281 193.835938 204.816406 197.449219 199.453125 197.449219 Z M 235.796875 221.289062 C 241.164062 221.289062 245.578125 219.519531 248.839844 216.25 L 246.394531 212.910156 C 243.808594 215.566406 240.007812 217.0625 236.273438 217.0625 C 229.210938 217.0625 224.859375 211.886719 224.453125 205.6875 L 251.011719 205.6875 L 251.011719 204.394531 C 251.011719 194.515625 245.167969 186.746094 235.246094 186.746094 C 225.871094 186.746094 219.082031 194.445312 219.082031 203.984375 C 219.082031 214.273438 226.078125 221.261719 235.792969 221.261719 Z M 245.988281 201.9375 L 224.453125 201.9375 C 224.726562 196.898438 228.1875 190.964844 235.1875 190.964844 C 242.660156 190.964844 245.917969 197.03125 245.988281 201.9375 Z M 284.847656 220.472656 L 284.847656 197.851562 C 284.847656 189.878906 279.078125 186.742188 272.144531 186.742188 C 266.777344 186.742188 262.566406 188.515625 259.035156 192.195312 L 261.414062 195.734375 C 264.332031 192.601562 267.527344 191.171875 271.46875 191.171875 C 276.222656 191.171875 279.757812 193.691406 279.757812 198.121094 L 279.757812 204.046875 C 277.105469 200.980469 273.371094 199.550781 268.886719 199.550781 C 263.316406 199.550781 257.402344 203.023438 257.402344 210.382812 C 257.402344 217.535156 263.3125 221.285156 268.886719 221.285156 C 273.300781 221.285156 277.039062 219.71875 279.757812 216.722656 L 279.757812 220.464844 Z M 270.722656 217.609375 C 265.964844 217.609375 262.636719 214.613281 262.636719 210.457031 C 262.636719 206.230469 265.964844 203.234375 270.722656 203.234375 C 274.320312 203.234375 277.785156 204.59375 279.757812 207.320312 L 279.757812 213.523438 C 277.789062 216.246094 274.320312 217.613281 270.722656 217.613281 Z M 309.484375 221.289062 C 315.460938 221.289062 318.992188 218.835938 321.507812 215.566406 L 318.109375 212.433594 C 315.9375 215.363281 313.152344 216.722656 309.785156 216.722656 C 302.789062 216.722656 298.441406 211.273438 298.441406 203.984375 C 298.441406 196.695312 302.789062 191.3125 309.785156 191.3125 C 313.179688 191.3125 315.964844 192.609375 318.109375 195.605469 L 321.507812 192.46875 C 318.996094 189.199219 315.460938 186.75 309.484375 186.75 C 299.699219 186.75 293.109375 194.246094 293.109375 203.988281 C 293.109375 213.796875 299.699219 221.265625 309.484375 221.265625 Z M 336.933594 221.289062 C 339.917969 221.289062 341.753906 220.402344 343.046875 219.179688 L 341.554688 215.363281 C 340.875 216.109375 339.542969 216.722656 338.089844 216.722656 C 335.847656 216.722656 334.757812 214.953125 334.757812 212.5 L 334.757812 192.058594 L 341.417969 192.058594 L 341.417969 187.5625 L 334.757812 187.5625 L 334.757812 178.570312 L 329.660156 178.570312 L 329.660156 187.5625 L 324.226562 187.5625 L 324.226562 192.0625 L 329.660156 192.0625 L 329.660156 213.59375 C 329.660156 218.5 332.109375 221.292969 336.933594 221.292969 Z M 336.933594 221.289062 " fill-opacity="1" fill-rule="evenodd"/></svg>