<svg xmlns="http://www.w3.org/2000/svg" xmlns:xlink="http://www.w3.org/1999/xlink" width="500" zoomAndPan="magnify" viewBox="0 0 375 374.999991" height="500" preserveAspectRatio="xMidYMid meet" version="1.0"><defs><clipPath id="cfa7383a38"><path d="M 61 205 L 69 205 L 69 233.5 L 61 233.5 Z M 61 205 " clip-rule="nonzero"/></clipPath><clipPath id="5703064ba2"><path d="M 268 171 L 337.5 171 L 337.5 207 L 268 207 Z M 268 171 " clip-rule="nonzero"/></clipPath></defs><path fill="#599636" d="M 63.664062 118.433594 L 66.746094 124.230469 C 67.417969 125.277344 68.195312 126.242188 69.074219 127.125 C 71.65625 129.707031 74.113281 132.410156 76.3125 135.308594 C 81.535156 142.171875 85.0625 149.789062 87.582031 158.039062 C 89.089844 163.078125 89.910156 168.238281 89.972656 173.464844 C 90.226562 189.078125 84.871094 202.488281 74.046875 213.628906 C 72.289062 215.398438 70.398438 217.015625 68.378906 218.480469 C 67.304688 218.480469 66.804688 217.632812 66.363281 216.90625 C 65.515625 215.492188 65.039062 213.945312 64.789062 212.371094 C 64.410156 210.484375 64.160156 208.597656 64.285156 206.640625 L 64.285156 205.761719 C 64.222656 205.570312 63.28125 118.878906 63.65625 118.4375 Z M 63.664062 118.433594 " fill-opacity="1" fill-rule="nonzero"/><path fill="#6cac48" d="M 63.664062 118.246094 C 63.535156 117.992188 63.410156 118.183594 63.285156 118.308594 C 63.347656 119.566406 62.90625 120.699219 62.210938 121.773438 C 61.457031 122.847656 60.445312 123.660156 59.441406 124.542969 C 53.835938 129.390625 49.433594 135.246094 45.902344 141.792969 C 41.246094 150.609375 38.792969 160.050781 38.101562 170 C 37.789062 173.589844 39.230469 186.246094 40.367188 189.894531 C 43.449219 199.589844 48.992188 207.710938 56.199219 214.761719 C 57.964844 216.457031 59.851562 218.035156 61.804688 219.546875 C 62.371094 219.546875 62.433594 219.042969 62.558594 218.664062 C 62.808594 217.859375 62.996094 217.039062 63.125 216.207031 C 63.6875 213.058594 64.007812 209.910156 64.382812 206.765625 L 63.6875 118.246094 Z M 63.664062 118.246094 " fill-opacity="1" fill-rule="nonzero"/><g clip-path="url(#cfa7383a38)"><path fill="#6cac48" d="M 66.753906 222.320312 C 66.882812 220.871094 67.601562 219.675781 68.328125 218.480469 C 67.574219 218.167969 67.003906 217.535156 66.566406 216.839844 C 66.1875 216.210938 65.871094 215.425781 65.621094 214.761719 C 64.738281 212.117188 64.546875 209.347656 64.296875 206.640625 L 64.296875 205 C 63.984375 205.253906 63.917969 207.390625 63.917969 207.707031 C 63.730469 210.601562 63.351562 213.4375 62.789062 216.207031 C 62.597656 217.335938 62.476562 218.472656 61.78125 219.480469 C 61.78125 219.605469 61.78125 219.734375 61.84375 219.921875 C 62.972656 223.257812 63.289062 226.65625 63.484375 230.121094 L 63.484375 231.378906 C 63.484375 232.890625 63.421875 232.574219 64.679688 233.074219 C 65.183594 233.265625 65.753906 233.332031 66.253906 233.707031 C 66.632812 233.707031 66.695312 233.394531 66.695312 233.140625 L 66.503906 231.0625 L 66.503906 225.265625 C 66.441406 224.261719 66.632812 223.25 66.757812 222.308594 Z M 66.753906 222.320312 " fill-opacity="1" fill-rule="nonzero"/></g><path fill="#ffffff" d="M 114.558594 195.984375 L 114.558594 201.980469 C 114.554688 202.21875 114.566406 202.457031 114.601562 202.691406 C 114.679688 203.402344 115.113281 203.835938 115.753906 204.035156 C 116.355469 204.191406 116.960938 204.308594 117.574219 204.390625 C 117.929688 204.429688 118.046875 204.585938 118.085938 204.964844 C 118.128906 206.308594 118.007812 206.46875 116.707031 206.386719 C 113.671875 206.226562 110.632812 206.191406 107.59375 206.386719 L 107.304688 206.386719 C 106.359375 206.425781 106.28125 206.347656 106.28125 205.398438 C 106.28125 205.242188 106.320312 205.042969 106.320312 204.886719 C 106.320312 204.597656 106.515625 204.453125 106.792969 204.453125 C 107.429688 204.375 108.019531 204.214844 108.613281 204.097656 C 109.441406 203.902344 109.914062 203.386719 109.992188 202.558594 C 110.109375 201.652344 110.109375 200.707031 110.109375 199.796875 L 110.148438 189.226562 C 110.164062 188.910156 110.089844 188.621094 109.933594 188.347656 C 109.777344 188.078125 109.558594 187.867188 109.28125 187.722656 C 108.566406 187.324219 107.816406 187.011719 107.03125 186.777344 C 106.792969 186.699219 106.558594 186.660156 106.363281 186.539062 C 105.785156 186.261719 105.769531 185.753906 106.320312 185.433594 C 106.515625 185.320312 106.753906 185.238281 106.992188 185.199219 C 109.390625 184.84375 111.730469 184.25 114.011719 183.421875 C 114.484375 183.265625 114.601562 183.308594 114.648438 183.777344 C 114.6875 184.066406 114.648438 184.414062 114.605469 184.683594 C 114.527344 185.199219 114.527344 185.707031 114.527344 186.183594 C 114.527344 186.382812 114.570312 186.582031 114.765625 186.699219 C 114.960938 186.816406 115.160156 186.699219 115.34375 186.582031 C 116.171875 185.949219 117 185.359375 117.90625 184.851562 C 119.203125 184.140625 120.589844 183.507812 122.089844 183.3125 C 123.910156 183.074219 125.484375 183.550781 126.867188 184.734375 C 127.441406 185.246094 127.941406 185.824219 128.363281 186.46875 C 128.761719 187.046875 128.796875 187.058594 129.3125 186.664062 C 130.8125 185.558594 132.386719 184.574219 134.085938 183.863281 C 135.863281 183.113281 137.675781 183 139.488281 183.628906 C 141.34375 184.296875 142.609375 185.597656 143.359375 187.375 C 143.992188 188.792969 144.265625 190.261719 144.265625 191.792969 L 144.265625 202.363281 C 144.265625 203.074219 144.554688 203.515625 145.253906 203.863281 C 146.003906 204.152344 146.832031 204.296875 147.621094 204.457031 C 148.132812 204.570312 148.132812 204.570312 148.132812 205.089844 C 148.054688 206.390625 147.9375 206.46875 146.671875 206.390625 C 143.503906 206.210938 140.335938 206.210938 137.167969 206.390625 C 136.53125 206.429688 136.53125 206.429688 136.496094 205.796875 L 136.496094 205.601562 C 136.457031 204.535156 136.457031 204.535156 137.484375 204.300781 L 138.507812 204.023438 C 138.867188 203.941406 139.160156 203.753906 139.386719 203.46875 C 139.617188 203.179688 139.730469 202.855469 139.734375 202.488281 L 139.847656 199.527344 L 139.769531 191.796875 C 139.738281 191.101562 139.59375 190.429688 139.335938 189.785156 C 138.351562 187.378906 136.183594 186.511719 134.089844 186.746094 C 132.511719 186.90625 131.128906 187.535156 129.828125 188.445312 C 129.550781 188.640625 129.355469 188.878906 129.394531 189.273438 C 129.75 191.800781 129.511719 194.324219 129.554688 196.847656 L 129.554688 202.332031 C 129.554688 203.320312 129.949219 203.792969 130.894531 204.03125 L 132.714844 204.425781 C 132.992188 204.46875 133.148438 204.585938 133.148438 204.898438 L 133.148438 205.1875 C 133.109375 206.292969 133.03125 206.34375 131.925781 206.332031 C 128.769531 206.171875 125.609375 206.214844 122.496094 206.332031 C 121.425781 206.371094 121.339844 206.253906 121.390625 205.175781 C 121.429688 204.542969 121.503906 204.507812 122.101562 204.390625 L 123.398438 204.152344 C 124.554688 203.914062 124.976562 203.484375 125.054688 202.257812 L 125.171875 199.613281 L 125.09375 191.683594 C 125.015625 190.695312 124.804688 189.75 124.265625 188.84375 C 123.476562 187.382812 122.246094 186.636719 120.554688 186.554688 C 118.859375 186.4375 117.359375 187.070312 115.9375 187.855469 C 114.949219 188.429688 114.515625 189.113281 114.59375 190.261719 L 114.59375 196.019531 Z M 188.886719 196.226562 L 188.886719 201.789062 C 188.890625 202.183594 188.917969 202.578125 188.964844 202.972656 C 188.980469 203.242188 189.078125 203.476562 189.253906 203.683594 C 189.429688 203.886719 189.648438 204.019531 189.910156 204.078125 C 190.59375 204.277344 191.289062 204.394531 192 204.433594 C 192.394531 204.472656 192.472656 204.628906 192.515625 204.945312 L 192.515625 205.222656 C 192.472656 206.601562 192.316406 206.761719 190.976562 206.683594 C 187.972656 206.488281 184.980469 206.523438 181.980469 206.683594 L 180.824219 206.722656 C 180.589844 206.722656 180.535156 206.609375 180.46875 206.449219 C 180.355469 205.894531 180.355469 205.34375 180.46875 204.789062 C 180.511719 204.554688 180.667969 204.5 180.902344 204.433594 C 181.480469 204.355469 181.972656 204.238281 182.519531 204.148438 C 183.507812 203.910156 183.863281 203.511719 183.898438 202.488281 L 184.015625 199.175781 L 184.015625 189.46875 C 184.015625 188.761719 183.738281 188.328125 183.109375 188.007812 C 182.398438 187.613281 181.648438 187.339844 180.855469 187.0625 C 180.621094 186.984375 180.382812 186.902344 180.1875 186.785156 C 179.671875 186.429688 179.609375 185.917969 180.109375 185.523438 C 180.339844 185.335938 180.601562 185.230469 180.898438 185.207031 C 183.421875 184.8125 185.867188 184.257812 188.234375 183.3125 C 188.511719 183.199219 188.632812 183.273438 188.75 183.507812 C 188.867188 183.746094 188.910156 184.023438 188.867188 184.296875 L 188.75 186.152344 C 188.75 186.386719 188.632812 186.726562 188.828125 186.820312 C 189.066406 186.980469 189.222656 186.625 189.417969 186.53125 C 190.589844 185.550781 191.867188 184.734375 193.246094 184.085938 C 194.472656 183.507812 195.730469 183.140625 197.152344 183.21875 C 199.796875 183.378906 201.691406 184.722656 202.914062 187.046875 C 203.546875 188.273438 203.820312 189.613281 203.9375 190.996094 L 204.050781 193.882812 L 204.09375 202.597656 C 204.132812 203.269531 204.371094 203.703125 205.039062 203.941406 C 205.734375 204.171875 206.445312 204.34375 207.171875 204.457031 C 207.804688 204.535156 207.839844 204.652344 207.878906 205.242188 L 207.878906 205.441406 C 207.800781 206.78125 207.722656 206.820312 206.378906 206.738281 C 203.433594 206.582031 200.488281 206.582031 197.542969 206.738281 C 197.148438 206.78125 196.753906 206.738281 196.386719 206.78125 C 196.152344 206.78125 195.992188 206.738281 195.957031 206.503906 C 195.878906 205.988281 195.796875 205.476562 195.914062 204.921875 C 195.957031 204.6875 196.074219 204.566406 196.347656 204.527344 L 198.167969 204.238281 C 198.800781 204.082031 199.152344 203.660156 199.234375 203.085938 L 199.3125 201.980469 L 199.273438 193.734375 C 199.273438 192.789062 199.230469 191.839844 199.035156 190.894531 C 198.5625 188.871094 197.023438 187.429688 194.9375 187.226562 C 193.117188 187.03125 191.472656 187.503906 189.964844 188.488281 C 189.214844 188.960938 188.898438 189.632812 188.898438 190.460938 L 188.898438 196.417969 C 188.898438 196.304688 188.898438 196.304688 188.9375 196.304688 Z M 188.886719 196.226562 " fill-opacity="1" fill-rule="nonzero"/><g clip-path="url(#5703064ba2)"><path fill="#6cac48" d="M 304.421875 185.058594 C 303.988281 182.179688 302.921875 179.613281 301.066406 177.367188 C 299.425781 175.347656 297.402344 173.847656 294.992188 172.867188 C 292.507812 171.84375 289.863281 171.527344 287.179688 171.449219 C 286.074219 171.40625 271.003906 171.644531 269.898438 171.449219 C 269.621094 171.40625 269.425781 171.488281 269.265625 171.726562 C 269.066406 172.015625 268.867188 172.316406 268.75 172.632812 C 268.277344 173.699219 268.277344 173.617188 269.421875 173.773438 C 270.367188 173.933594 271.273438 174.011719 272.183594 174.289062 C 273.011719 174.566406 273.601562 175.039062 273.800781 175.945312 C 273.878906 176.378906 273.957031 190.265625 273.957031 196.734375 L 273.800781 201.355469 C 273.757812 201.710938 273.722656 202.066406 273.601562 202.378906 C 273.445312 202.851562 273.171875 203.246094 272.695312 203.449219 C 272.171875 203.695312 271.617188 203.839844 271.039062 203.882812 C 269.972656 203.996094 269.816406 204.039062 269.460938 205.222656 L 269.34375 205.65625 C 269.265625 206.171875 269.304688 206.25 269.820312 206.25 L 281.613281 206.363281 L 286.234375 206.285156 L 289.429688 205.890625 C 293.058594 205.21875 296.292969 203.71875 299.054688 201.316406 C 300.644531 199.910156 301.90625 198.25 302.839844 196.34375 C 303.945312 194.136719 304.417969 191.726562 304.539062 189.28125 C 304.734375 187.902344 304.652344 186.484375 304.421875 185.0625 Z M 298.699219 190.660156 C 298.542969 193.183594 298.03125 195.628906 296.730469 197.839844 C 295.070312 200.71875 292.703125 202.730469 289.429688 203.4375 C 288.011719 203.726562 286.589844 203.871094 285.101562 203.675781 C 284.03125 203.5625 283.011719 203.4375 282.023438 203.085938 C 280.25 202.449219 279.617188 201.351562 279.578125 199.621094 L 279.539062 175.832031 C 279.539062 174.414062 280.171875 174.101562 281.195312 174.058594 C 282.734375 173.941406 284.3125 173.980469 285.851562 174.136719 C 287.496094 174.296875 289.089844 174.679688 290.625 175.289062 C 291.769531 175.765625 292.808594 176.410156 293.746094 177.222656 C 295.875 179.042969 297.296875 181.324219 298.074219 184.007812 C 298.710938 186.179688 298.824219 188.386719 298.710938 190.597656 Z M 337.210938 194.527344 C 337.210938 194.292969 337.210938 194.09375 337.167969 193.859375 C 336.816406 191.6875 335.667969 190.03125 333.894531 188.769531 C 332.753906 187.941406 331.453125 187.390625 330.109375 186.992188 C 329.871094 186.914062 329.675781 186.835938 329.4375 186.796875 C 329.480469 186.601562 329.597656 186.558594 329.714844 186.519531 C 330.503906 186.125 331.253906 185.691406 331.925781 185.101562 C 333.148438 184.074219 333.945312 182.808594 334.371094 181.273438 C 334.605469 180.441406 334.605469 179.613281 334.527344 178.746094 C 334.464844 177.714844 334.179688 176.75 333.671875 175.851562 C 333.167969 174.953125 332.492188 174.207031 331.648438 173.617188 C 329.828125 172.273438 327.703125 171.722656 325.492188 171.683594 C 321.230469 171.605469 316.933594 171.683594 312.675781 171.683594 C 311.453125 171.683594 310.230469 171.761719 308.964844 171.566406 C 308.730469 171.527344 308.390625 171.449219 308.214844 171.726562 C 307.925781 172.238281 307.582031 172.75 307.464844 173.34375 C 307.425781 173.617188 307.503906 173.773438 307.820312 173.816406 L 310.542969 174.210938 C 311.609375 174.371094 312.359375 174.960938 312.4375 175.910156 C 312.511719 176.5625 312.550781 177.21875 312.550781 177.878906 L 312.472656 185.253906 L 312.433594 199.851562 C 312.433594 200.71875 312.316406 201.546875 312.15625 202.414062 C 312.117188 202.695312 312.003906 202.941406 311.816406 203.15625 C 311.632812 203.371094 311.402344 203.519531 311.132812 203.597656 C 310.34375 203.835938 309.59375 204.070312 308.765625 204.070312 C 308.535156 204.050781 308.324219 204.101562 308.132812 204.226562 C 307.941406 204.351562 307.8125 204.523438 307.738281 204.742188 C 307.582031 205.097656 307.449219 205.492188 307.382812 205.847656 C 307.304688 206.320312 307.425781 206.480469 307.898438 206.425781 C 308.253906 206.382812 321.273438 206.703125 323.71875 206.464844 C 325.179688 206.304688 326.605469 206.109375 328.054688 205.675781 C 330.539062 204.886719 332.832031 203.742188 334.644531 201.808594 C 336.144531 200.230469 337.011719 198.335938 337.089844 196.128906 C 337.203125 195.613281 337.203125 195.101562 337.203125 194.546875 Z M 318.078125 178.363281 L 318.191406 175.207031 C 318.191406 174.613281 318.429688 174.339844 319.019531 174.21875 C 319.96875 174.023438 320.914062 174.105469 321.863281 174.140625 C 322.808594 174.21875 323.714844 174.335938 324.660156 174.613281 C 326.394531 175.128906 327.738281 176.117188 328.53125 177.769531 C 328.894531 178.53125 329.078125 179.335938 329.082031 180.179688 C 329.121094 181.285156 329.039062 182.347656 328.609375 183.410156 C 327.9375 184.871094 326.875 185.820312 325.335938 186.09375 C 323.792969 186.371094 319.417969 186.253906 318.746094 186.253906 C 318.15625 186.253906 318.113281 186.175781 318.113281 185.585938 L 318.113281 181.871094 C 318.019531 180.710938 318.003906 179.554688 318.070312 178.398438 Z M 330.894531 199.585938 C 330.222656 201.359375 329 202.585938 327.265625 203.25 C 326.320312 203.605469 325.371094 203.828125 324.378906 203.765625 C 323.15625 203.726562 321.933594 203.765625 320.710938 203.527344 C 319.054688 203.171875 318.304688 201.59375 318.1875 200.453125 C 317.992188 198.4375 318.109375 196.386719 318.070312 194.890625 L 318.070312 189.679688 C 318.070312 189.046875 318.148438 188.851562 318.820312 188.851562 L 322.53125 188.894531 L 325.058594 189.179688 C 326.832031 189.578125 328.449219 190.25 329.714844 191.625 C 330.738281 192.730469 331.292969 194.070312 331.410156 195.53125 C 331.527344 196.914062 331.453125 198.253906 330.9375 199.554688 Z M 330.894531 199.585938 " fill-opacity="1" fill-rule="nonzero"/></g><path fill="#ffffff" d="M 230.664062 187.699219 L 231.691406 187.859375 C 232.796875 187.898438 234.097656 187.503906 234.492188 185.964844 C 234.710938 185.214844 234.710938 184.464844 234.492188 183.714844 C 234.253906 183.714844 234.136719 183.910156 234.015625 183.992188 C 233.425781 184.464844 232.753906 184.742188 232.046875 184.820312 C 230.625 184.976562 229.203125 184.898438 227.824219 184.386719 L 225.890625 183.71875 C 224.53125 183.269531 223.136719 183.089844 221.707031 183.167969 C 219.691406 183.328125 217.800781 183.996094 216.023438 184.945312 C 214.128906 185.96875 212.789062 187.507812 212.15625 189.601562 C 211.800781 190.824219 211.761719 192.082031 211.917969 193.347656 C 212.316406 196.226562 213.8125 198.242188 216.496094 199.304688 C 216.652344 199.347656 216.773438 199.421875 216.925781 199.464844 C 217.28125 199.660156 217.324219 199.859375 217.003906 200.132812 L 216.019531 200.804688 L 213.652344 202.265625 C 213.058594 202.621094 212.980469 202.898438 213.175781 203.527344 C 213.417969 204.277344 213.835938 204.910156 214.4375 205.417969 C 214.984375 205.886719 215.589844 206.253906 216.253906 206.523438 C 216.6875 206.722656 216.6875 206.8125 216.296875 207.160156 L 214.042969 208.777344 C 213.292969 209.355469 212.542969 209.933594 211.914062 210.671875 C 211.46875 211.144531 211.164062 211.699219 210.996094 212.328125 C 210.828125 212.957031 210.816406 213.585938 210.964844 214.222656 C 211.265625 215.625 211.949219 216.808594 213.015625 217.773438 C 214.058594 218.738281 215.269531 219.394531 216.644531 219.742188 C 218.851562 220.378906 221.140625 220.414062 223.390625 219.980469 C 226.625 219.386719 229.453125 217.960938 231.675781 215.523438 C 233.214844 213.90625 234.121094 212.011719 234.203125 209.75 C 234.246094 209.09375 234.175781 208.453125 233.988281 207.824219 C 233.804688 207.195312 233.515625 206.617188 233.128906 206.089844 C 232.738281 205.5625 232.269531 205.117188 231.71875 204.757812 C 231.171875 204.394531 230.578125 204.140625 229.941406 203.992188 L 227.8125 203.59375 L 221.300781 203.019531 C 220.589844 202.976562 219.878906 202.859375 219.289062 202.503906 C 218.539062 202.03125 218.34375 201.125 218.816406 200.53125 C 219.171875 200.097656 219.605469 199.820312 220.15625 199.78125 L 221.417969 199.667969 C 222.667969 199.539062 223.859375 199.214844 225 198.695312 C 226.144531 198.175781 227.171875 197.488281 228.085938 196.628906 C 229.082031 195.707031 229.753906 194.589844 230.097656 193.273438 C 230.570312 191.578125 230.570312 189.8125 230.175781 188.078125 C 230.058594 187.644531 230.097656 187.605469 230.648438 187.683594 Z M 220.996094 207.351562 C 221.230469 207.390625 221.46875 207.351562 221.707031 207.351562 C 223.363281 207.429688 225.058594 207.546875 226.675781 207.984375 C 227.203125 208.140625 227.71875 208.339844 228.214844 208.578125 C 229.792969 209.445312 230.386719 210.945312 230.1875 212.5625 C 229.949219 214.335938 228.960938 215.597656 227.421875 216.429688 C 226.398438 217.007812 225.253906 217.257812 224.070312 217.375 C 223.636719 217.417969 223.242188 217.375 222.808594 217.375 C 221.429688 217.417969 220.085938 217.261719 218.785156 216.707031 C 217.878906 216.351562 217.125 215.839844 216.457031 215.128906 C 215.078125 213.746094 214.4375 211.222656 216.496094 209.167969 C 217.757812 208.015625 219.183594 207.199219 220.996094 207.351562 Z M 225.492188 195.042969 C 224.664062 197.132812 222.847656 197.765625 221.035156 197.488281 C 219.378906 197.25 218.15625 196.34375 217.371094 194.84375 C 216.34375 192.832031 216.070312 190.742188 216.660156 188.570312 C 217.09375 186.953125 218.078125 185.730469 219.8125 185.453125 C 222.023438 185.054688 224.144531 185.847656 225.257812 188.054688 C 225.835938 189.125 226.085938 190.421875 226.085938 192.277344 C 226.046875 193.027344 225.890625 194.050781 225.496094 195.039062 Z M 175.789062 192.355469 C 175.433594 190.226562 174.644531 188.292969 173.183594 186.675781 C 171.011719 184.269531 168.253906 183.210938 165.136719 183.203125 C 162.414062 183.164062 159.851562 183.953125 157.5625 185.375 C 156.433594 186.046875 155.472656 186.90625 154.675781 187.949219 C 153.878906 188.992188 153.300781 190.144531 152.945312 191.410156 C 152.277344 193.699219 152.308594 196.027344 152.828125 198.351562 C 154.210938 204.589844 159.023438 207.265625 164.78125 206.875 C 166.476562 206.757812 168.09375 206.203125 169.628906 205.453125 C 171.917969 204.386719 173.578125 202.691406 174.71875 200.441406 C 175.625 198.589844 176.019531 196.613281 175.980469 194.367188 L 175.785156 192.355469 Z M 170.1875 201.117188 C 170.046875 201.558594 169.84375 201.972656 169.582031 202.359375 C 169.320312 202.742188 169.011719 203.082031 168.648438 203.378906 C 168.289062 203.671875 167.894531 203.910156 167.460938 204.085938 C 167.03125 204.265625 166.585938 204.378906 166.125 204.429688 C 164.390625 204.667969 162.769531 204.234375 161.3125 203.207031 C 160.242188 202.421875 159.414062 201.433594 158.824219 200.246094 C 157.207031 196.933594 156.933594 193.460938 157.757812 189.910156 C 158.027344 188.789062 158.582031 187.828125 159.414062 187.03125 C 160.875 185.6875 162.570312 185.375 164.464844 185.769531 C 166.285156 186.164062 167.660156 187.148438 168.796875 188.652344 C 169.929688 190.152344 170.453125 191.882812 170.769531 193.703125 C 170.925781 194.609375 170.925781 195.554688 170.964844 196.148438 C 170.964844 198.042969 170.804688 199.613281 170.214844 201.117188 Z M 261.988281 192.675781 C 261.699219 190.386719 260.84375 188.296875 259.222656 186.558594 C 257.09375 184.234375 254.332031 183.246094 251.257812 183.207031 C 248.613281 183.164062 246.167969 183.917969 243.917969 185.21875 C 241.394531 186.71875 239.65625 188.847656 238.988281 191.726562 C 238.589844 193.300781 238.46875 194.890625 238.632812 196.503906 C 238.796875 198.117188 239.230469 199.65625 239.933594 201.117188 C 241.234375 203.878906 243.445312 205.652344 246.367188 206.441406 C 249.601562 207.308594 252.679688 206.914062 255.675781 205.453125 C 258.28125 204.191406 260.132812 202.222656 261.199219 199.535156 C 261.832031 197.957031 262.066406 196.261719 262.105469 194.289062 C 262.144531 193.933594 262.066406 193.300781 261.988281 192.671875 Z M 256.542969 200.605469 C 255.90625 202.734375 254.570312 204.113281 252.320312 204.433594 C 250.664062 204.667969 249.089844 204.273438 247.664062 203.328125 C 246.441406 202.5 245.574219 201.394531 244.945312 200.09375 C 244.234375 198.714844 243.835938 197.253906 243.683594 195.753906 C 243.445312 193.902344 243.445312 192.089844 243.878906 190.230469 C 243.960938 189.867188 244.078125 189.511719 244.234375 189.167969 C 245.339844 186.40625 247.785156 185.144531 250.664062 185.773438 C 252.597656 186.207031 254.058594 187.277344 255.164062 188.894531 C 256.230469 190.472656 256.742188 192.207031 256.980469 194.089844 C 257.097656 194.839844 257.140625 195.628906 257.097656 196.296875 C 257.097656 197.835938 256.980469 199.257812 256.519531 200.636719 Z M 256.542969 200.605469 " fill-opacity="1" fill-rule="nonzero"/></svg>