<svg xmlns="http://www.w3.org/2000/svg" xmlns:xlink="http://www.w3.org/1999/xlink" width="500" zoomAndPan="magnify" viewBox="0 0 375 374.999991" height="500" preserveAspectRatio="xMidYMid meet" version="1.0"><defs><clipPath id="154f3ea71d"><path d="M 129 64.152344 L 261 64.152344 L 261 170 L 129 170 Z M 129 64.152344 " clip-rule="nonzero"/></clipPath><clipPath id="3d9f344cb6"><path d="M 92.484375 220 L 167 220 L 167 310.902344 L 92.484375 310.902344 Z M 92.484375 220 " clip-rule="nonzero"/></clipPath><clipPath id="ee9ee5c72a"><path d="M 223 220 L 297.234375 220 L 297.234375 310.902344 L 223 310.902344 Z M 223 220 " clip-rule="nonzero"/></clipPath></defs><path fill="#edf3f4" d="M 163.617188 296.972656 L 163.617188 234.082031 C 163.617188 227.878906 158.539062 222.8125 152.332031 222.8125 L 106.589844 222.8125 C 100.382812 222.8125 95.308594 227.886719 95.308594 234.082031 L 95.308594 296.964844 C 95.308594 303.167969 100.386719 308.238281 106.589844 308.238281 L 152.328125 308.238281 C 158.539062 308.242188 163.617188 303.167969 163.617188 296.972656 Z M 163.617188 296.972656 " fill-opacity="1" fill-rule="nonzero"/><path fill="#edf3f4" d="M 226.109375 234.082031 L 226.109375 296.964844 C 226.109375 303.167969 231.191406 308.238281 237.394531 308.238281 L 283.128906 308.238281 C 289.339844 308.238281 294.414062 303.164062 294.414062 296.964844 L 294.414062 234.082031 C 294.414062 227.878906 289.335938 222.8125 283.128906 222.8125 L 237.386719 222.8125 C 231.191406 222.8125 226.109375 227.886719 226.109375 234.082031 Z M 226.109375 234.082031 " fill-opacity="1" fill-rule="nonzero"/><path fill="#ffae06" d="M 200.3125 112.65625 L 258.039062 112.65625 L 258.039062 103.691406 C 258.039062 94.882812 250.820312 87.675781 242.003906 87.675781 L 187.808594 87.675781 L 187.808594 100.164062 C 187.808594 107.035156 193.4375 112.65625 200.3125 112.65625 Z M 200.3125 112.65625 " fill-opacity="1" fill-rule="evenodd"/><path fill="#ffc107" d="M 200.3125 112.65625 C 193.4375 112.65625 187.808594 107.035156 187.808594 100.167969 L 187.808594 87.675781 L 210.898438 87.675781 L 210.898438 77.265625 C 210.898438 71.539062 206.210938 66.855469 200.476562 66.855469 L 142.113281 66.855469 C 136.378906 66.855469 131.6875 71.539062 131.6875 77.265625 L 131.6875 150.453125 C 131.6875 159.257812 138.90625 166.46875 147.722656 166.46875 L 242.003906 166.46875 C 250.820312 166.46875 258.039062 159.257812 258.039062 150.453125 L 258.039062 112.65625 Z M 200.3125 112.65625 " fill-opacity="1" fill-rule="evenodd"/><g clip-path="url(#154f3ea71d)"><path fill="#000000" d="M 242.003906 169.148438 L 147.722656 169.148438 C 137.402344 169.148438 129.003906 160.761719 129.003906 150.453125 L 129.003906 77.265625 C 129.003906 70.046875 134.882812 64.175781 142.113281 64.175781 L 200.476562 64.175781 C 207.703125 64.175781 213.582031 70.046875 213.582031 77.265625 L 213.582031 84.992188 L 242.003906 84.992188 C 252.324219 84.992188 260.722656 93.378906 260.722656 103.691406 L 260.722656 150.453125 C 260.722656 160.757812 252.324219 169.148438 242.003906 169.148438 Z M 142.113281 69.539062 C 137.84375 69.539062 134.375 73.003906 134.375 77.265625 L 134.375 150.453125 C 134.375 157.804688 140.359375 163.785156 147.722656 163.785156 L 242.003906 163.785156 C 249.367188 163.785156 255.351562 157.804688 255.351562 150.453125 L 255.351562 103.691406 C 255.351562 96.335938 249.367188 90.359375 242.003906 90.359375 L 210.898438 90.359375 C 209.414062 90.359375 208.210938 89.15625 208.210938 87.675781 L 208.210938 77.265625 C 208.210938 73.003906 204.742188 69.539062 200.476562 69.539062 Z M 142.113281 69.539062 " fill-opacity="1" fill-rule="nonzero"/></g><path fill="#000000" d="M 258.039062 115.339844 L 200.3125 115.339844 C 191.9375 115.339844 185.125 108.535156 185.125 100.167969 L 185.125 87.675781 C 185.125 86.195312 186.324219 84.992188 187.808594 84.992188 C 189.292969 84.992188 190.492188 86.195312 190.492188 87.675781 L 190.492188 100.164062 C 190.492188 105.574219 194.902344 109.96875 200.3125 109.96875 L 258.039062 109.96875 C 259.519531 109.96875 260.722656 111.171875 260.722656 112.652344 C 260.722656 114.132812 259.519531 115.339844 258.039062 115.339844 Z M 258.039062 115.339844 " fill-opacity="1" fill-rule="nonzero"/><path fill="#000000" d="M 210.898438 90.359375 L 165.039062 90.359375 C 163.554688 90.359375 162.351562 89.15625 162.351562 87.675781 C 162.351562 86.195312 163.554688 84.992188 165.039062 84.992188 L 210.898438 84.992188 C 212.378906 84.992188 213.582031 86.195312 213.582031 87.675781 C 213.582031 89.15625 212.378906 90.359375 210.898438 90.359375 Z M 210.898438 90.359375 " fill-opacity="1" fill-rule="nonzero"/><path fill="#000000" d="M 194.863281 198.589844 C 193.382812 198.589844 192.179688 197.390625 192.179688 195.90625 L 192.179688 166.460938 C 192.179688 164.980469 193.382812 163.777344 194.863281 163.777344 C 196.347656 163.777344 197.550781 164.980469 197.550781 166.460938 L 197.550781 195.90625 C 197.550781 197.394531 196.347656 198.589844 194.863281 198.589844 Z M 194.863281 198.589844 " fill-opacity="1" fill-rule="nonzero"/><path fill="#000000" d="M 260.265625 225.496094 C 258.78125 225.496094 257.578125 224.292969 257.578125 222.8125 L 257.578125 209.167969 C 257.578125 203.339844 252.828125 198.597656 246.996094 198.597656 L 142.734375 198.597656 C 136.890625 198.597656 132.148438 203.339844 132.148438 209.167969 L 132.148438 222.8125 C 132.148438 224.292969 130.945312 225.496094 129.460938 225.496094 C 127.980469 225.496094 126.777344 224.292969 126.777344 222.8125 L 126.777344 209.167969 C 126.777344 200.378906 133.9375 193.230469 142.734375 193.230469 L 246.988281 193.230469 C 255.789062 193.230469 262.945312 200.382812 262.945312 209.167969 L 262.945312 222.8125 C 262.949219 224.292969 261.746094 225.496094 260.265625 225.496094 Z M 260.265625 225.496094 " fill-opacity="1" fill-rule="nonzero"/><g clip-path="url(#3d9f344cb6)"><path fill="#000000" d="M 152.332031 310.925781 L 106.589844 310.925781 C 98.886719 310.925781 92.621094 304.664062 92.621094 296.972656 L 92.621094 234.082031 C 92.621094 226.386719 98.886719 220.128906 106.589844 220.128906 L 152.328125 220.128906 C 160.03125 220.128906 166.296875 226.386719 166.296875 234.082031 L 166.296875 296.964844 C 166.304688 304.664062 160.035156 310.925781 152.332031 310.925781 Z M 106.589844 225.496094 C 101.847656 225.496094 97.992188 229.351562 97.992188 234.082031 L 97.992188 296.964844 C 97.992188 301.703125 101.851562 305.554688 106.589844 305.554688 L 152.328125 305.554688 C 157.070312 305.554688 160.925781 301.699219 160.925781 296.964844 L 160.925781 234.082031 C 160.925781 229.34375 157.066406 225.496094 152.328125 225.496094 Z M 106.589844 225.496094 " fill-opacity="1" fill-rule="nonzero"/></g><path fill="#000000" d="M 163.578125 154.476562 C 162.097656 154.476562 160.894531 153.273438 160.894531 151.792969 L 160.894531 128.960938 C 160.894531 127.480469 162.097656 126.28125 163.578125 126.28125 C 165.0625 126.28125 166.265625 127.480469 166.265625 128.960938 L 166.265625 151.792969 C 166.265625 153.273438 165.0625 154.476562 163.578125 154.476562 Z M 147.148438 154.476562 C 145.664062 154.476562 144.460938 153.273438 144.460938 151.792969 L 144.460938 128.960938 C 144.460938 127.480469 145.664062 126.28125 147.148438 126.28125 C 148.628906 126.28125 149.832031 127.480469 149.832031 128.960938 L 149.832031 151.792969 C 149.832031 153.273438 148.628906 154.476562 147.148438 154.476562 Z M 147.148438 154.476562 " fill-opacity="1" fill-rule="nonzero"/><path fill="#000000" d="M 163.578125 143.058594 L 147.148438 143.058594 C 145.664062 143.058594 144.460938 141.859375 144.460938 140.378906 C 144.460938 138.898438 145.664062 137.695312 147.148438 137.695312 L 163.578125 137.695312 C 165.0625 137.695312 166.265625 138.898438 166.265625 140.378906 C 166.265625 141.859375 165.0625 143.058594 163.578125 143.058594 Z M 163.578125 143.058594 " fill-opacity="1" fill-rule="nonzero"/><path fill="#000000" d="M 180.421875 154.476562 C 178.941406 154.476562 177.738281 153.273438 177.738281 151.792969 L 177.738281 128.960938 C 177.738281 127.480469 178.941406 126.28125 180.421875 126.28125 C 181.90625 126.28125 183.109375 127.480469 183.109375 128.960938 L 183.109375 151.792969 C 183.109375 153.273438 181.90625 154.476562 180.421875 154.476562 Z M 180.421875 154.476562 " fill-opacity="1" fill-rule="nonzero"/><path fill="#000000" d="M 187.449219 131.644531 L 173.390625 131.644531 C 171.910156 131.644531 170.707031 130.445312 170.707031 128.960938 C 170.707031 127.480469 171.910156 126.28125 173.390625 126.28125 L 187.449219 126.28125 C 188.933594 126.28125 190.136719 127.480469 190.136719 128.960938 C 190.136719 130.445312 188.933594 131.644531 187.449219 131.644531 Z M 187.449219 131.644531 " fill-opacity="1" fill-rule="nonzero"/><path fill="#000000" d="M 218.34375 154.476562 C 216.863281 154.476562 215.660156 153.273438 215.660156 151.792969 L 215.660156 141.1875 L 210.25 152.917969 C 209.8125 153.867188 208.855469 154.476562 207.808594 154.476562 C 206.761719 154.476562 205.808594 153.867188 205.371094 152.917969 L 199.960938 141.1875 L 199.960938 151.792969 C 199.960938 153.273438 198.757812 154.476562 197.273438 154.476562 C 195.792969 154.476562 194.589844 153.273438 194.589844 151.792969 L 194.589844 128.960938 C 194.589844 127.707031 195.46875 126.609375 196.699219 126.34375 C 197.929688 126.074219 199.183594 126.695312 199.714844 127.839844 L 207.808594 145.382812 L 215.90625 127.839844 C 216.4375 126.695312 217.691406 126.074219 218.921875 126.34375 C 220.152344 126.609375 221.03125 127.699219 221.03125 128.960938 L 221.03125 151.792969 C 221.03125 153.273438 219.828125 154.476562 218.34375 154.476562 Z M 218.34375 154.476562 " fill-opacity="1" fill-rule="nonzero"/><path fill="#000000" d="M 242.582031 154.476562 L 231.507812 154.476562 C 230.027344 154.476562 228.824219 153.273438 228.824219 151.792969 L 228.824219 128.960938 C 228.824219 127.480469 230.027344 126.28125 231.507812 126.28125 C 232.992188 126.28125 234.195312 127.480469 234.195312 128.960938 L 234.195312 149.113281 L 242.582031 149.113281 C 244.0625 149.113281 245.265625 150.3125 245.265625 151.792969 C 245.265625 153.273438 244.0625 154.476562 242.582031 154.476562 Z M 242.582031 154.476562 " fill-opacity="1" fill-rule="nonzero"/><path fill="#000000" d="M 245.808594 275.738281 L 243.230469 275.738281 C 238.355469 275.738281 234.394531 271.78125 234.394531 266.914062 L 234.394531 264.144531 C 234.394531 259.277344 238.355469 255.320312 243.230469 255.320312 L 245.808594 255.320312 C 249.261719 255.320312 252.0625 258.125 252.0625 261.570312 C 252.0625 263.050781 250.859375 264.25 249.378906 264.25 C 247.894531 264.25 246.691406 263.050781 246.691406 261.570312 C 246.691406 261.085938 246.289062 260.6875 245.808594 260.6875 L 243.230469 260.6875 C 241.320312 260.6875 239.765625 262.238281 239.765625 264.144531 L 239.765625 266.914062 C 239.765625 268.820312 241.320312 270.375 243.230469 270.375 L 245.808594 270.375 C 246.289062 270.375 246.691406 269.972656 246.691406 269.492188 C 246.691406 268.011719 247.894531 266.808594 249.378906 266.808594 C 250.859375 266.808594 252.0625 268.011719 252.0625 269.492188 C 252.0625 272.933594 249.253906 275.738281 245.808594 275.738281 Z M 245.808594 275.738281 " fill-opacity="1" fill-rule="nonzero"/><path fill="#000000" d="M 262.648438 275.738281 C 260.035156 275.738281 257.695312 274.179688 256.691406 271.769531 C 256.121094 270.402344 256.769531 268.832031 258.140625 268.261719 C 259.507812 267.691406 261.082031 268.339844 261.652344 269.710938 C 261.820312 270.113281 262.210938 270.375 262.652344 270.375 C 263.246094 270.375 263.734375 269.886719 263.734375 269.296875 C 263.734375 268.703125 263.246094 268.21875 262.652344 268.21875 C 259.09375 268.21875 256.203125 265.328125 256.203125 261.773438 C 256.203125 258.222656 259.09375 255.332031 262.652344 255.332031 C 265.085938 255.332031 267.285156 256.671875 268.394531 258.835938 C 269.070312 260.15625 268.550781 261.769531 267.230469 262.445312 C 265.910156 263.121094 264.292969 262.601562 263.617188 261.285156 C 263.46875 261 263.140625 260.695312 262.652344 260.695312 C 262.054688 260.695312 261.574219 261.183594 261.574219 261.773438 C 261.574219 262.375 262.0625 262.855469 262.652344 262.855469 C 266.210938 262.855469 269.105469 265.742188 269.105469 269.296875 C 269.105469 272.851562 266.207031 275.738281 262.648438 275.738281 Z M 262.648438 275.738281 " fill-opacity="1" fill-rule="nonzero"/><path fill="#000000" d="M 279.683594 275.738281 C 277.070312 275.738281 274.734375 274.179688 273.726562 271.769531 C 273.15625 270.402344 273.804688 268.832031 275.175781 268.261719 C 276.546875 267.691406 278.117188 268.339844 278.6875 269.710938 C 278.855469 270.113281 279.246094 270.375 279.683594 270.375 C 280.28125 270.375 280.761719 269.886719 280.761719 269.296875 C 280.761719 268.703125 280.277344 268.21875 279.683594 268.21875 C 276.125 268.21875 273.234375 265.328125 273.234375 261.773438 C 273.234375 258.222656 276.125 255.332031 279.683594 255.332031 C 282.117188 255.332031 284.316406 256.671875 285.425781 258.835938 C 286.101562 260.15625 285.582031 261.769531 284.261719 262.445312 C 282.941406 263.121094 281.324219 262.601562 280.644531 261.285156 C 280.5 261 280.171875 260.695312 279.683594 260.695312 C 279.089844 260.695312 278.605469 261.183594 278.605469 261.773438 C 278.605469 262.375 279.089844 262.855469 279.683594 262.855469 C 283.242188 262.855469 286.132812 265.742188 286.132812 269.296875 C 286.132812 272.851562 283.242188 275.738281 279.683594 275.738281 Z M 279.683594 275.738281 " fill-opacity="1" fill-rule="nonzero"/><path fill="#000000" d="M 117.605469 279.59375 C 113.015625 279.59375 109.28125 275.863281 109.28125 271.28125 C 109.28125 269.800781 110.484375 268.597656 111.96875 268.597656 C 113.449219 268.597656 114.652344 269.800781 114.652344 271.28125 C 114.652344 272.90625 115.980469 274.230469 117.605469 274.230469 C 119.234375 274.230469 120.5625 272.90625 120.5625 271.28125 L 120.5625 254.179688 C 120.5625 252.699219 121.765625 251.5 123.246094 251.5 C 124.730469 251.5 125.933594 252.699219 125.933594 254.179688 L 125.933594 271.28125 C 125.933594 275.863281 122.199219 279.59375 117.605469 279.59375 Z M 117.605469 279.59375 " fill-opacity="1" fill-rule="nonzero"/><path fill="#000000" d="M 141.253906 279.59375 C 137.855469 279.59375 134.816406 277.566406 133.511719 274.429688 C 132.941406 273.0625 133.589844 271.492188 134.960938 270.925781 C 136.332031 270.359375 137.90625 271.007812 138.476562 272.375 C 138.945312 273.503906 140.035156 274.230469 141.261719 274.230469 C 142.921875 274.230469 144.277344 272.878906 144.277344 271.21875 C 144.277344 269.558594 142.921875 268.207031 141.261719 268.207031 C 136.640625 268.207031 132.875 264.453125 132.875 259.832031 C 132.875 255.210938 136.632812 251.453125 141.261719 251.453125 C 144.421875 251.453125 147.28125 253.203125 148.722656 256.007812 C 149.402344 257.328125 148.882812 258.941406 147.5625 259.617188 C 146.242188 260.292969 144.625 259.773438 143.945312 258.457031 C 143.425781 257.445312 142.398438 256.8125 141.261719 256.8125 C 139.601562 256.8125 138.246094 258.164062 138.246094 259.824219 C 138.246094 261.484375 139.601562 262.835938 141.261719 262.835938 C 145.882812 262.835938 149.648438 266.589844 149.648438 271.210938 C 149.648438 275.832031 145.882812 279.59375 141.253906 279.59375 Z M 141.253906 279.59375 " fill-opacity="1" fill-rule="nonzero"/><g clip-path="url(#ee9ee5c72a)"><path fill="#000000" d="M 283.136719 310.925781 L 237.398438 310.925781 C 229.695312 310.925781 223.429688 304.664062 223.429688 296.972656 L 223.429688 234.082031 C 223.429688 226.386719 229.695312 220.128906 237.398438 220.128906 L 283.136719 220.128906 C 290.839844 220.128906 297.105469 226.386719 297.105469 234.082031 L 297.105469 296.964844 C 297.105469 304.664062 290.839844 310.925781 283.136719 310.925781 Z M 237.398438 225.496094 C 232.65625 225.496094 228.800781 229.351562 228.800781 234.082031 L 228.800781 296.964844 C 228.800781 301.703125 232.660156 305.554688 237.398438 305.554688 L 283.136719 305.554688 C 287.878906 305.554688 291.734375 301.699219 291.734375 296.964844 L 291.734375 234.082031 C 291.734375 229.34375 287.875 225.496094 283.136719 225.496094 Z M 237.398438 225.496094 " fill-opacity="1" fill-rule="nonzero"/></g></svg>