<svg xmlns="http://www.w3.org/2000/svg" xmlns:xlink="http://www.w3.org/1999/xlink" width="500" zoomAndPan="magnify" viewBox="0 0 375 374.999991" height="500" preserveAspectRatio="xMidYMid meet" version="1.0"><defs><clipPath id="fa4b18faa6"><path d="M 53.058594 116.351562 L 322 116.351562 L 322 278.351562 L 53.058594 278.351562 Z M 53.058594 116.351562 " clip-rule="nonzero"/></clipPath></defs><g clip-path="url(#fa4b18faa6)"><path fill="#ffffff" d="M 116.527344 158.644531 L 167.222656 158.644531 L 167.222656 162.671875 L 121.171875 162.671875 L 121.171875 192.996094 L 164.476562 192.996094 L 164.476562 197.027344 L 121.171875 197.027344 L 121.171875 230.324219 L 167.75 230.324219 L 167.75 234.355469 L 116.527344 234.355469 Z M 171.765625 158.644531 L 177.148438 158.644531 L 201.019531 191.9375 L 225.417969 158.644531 L 258.601562 116.351562 L 204.082031 195.4375 L 232.179688 234.355469 L 226.578125 234.355469 L 201.019531 198.933594 L 175.355469 234.355469 L 169.863281 234.355469 L 198.164062 195.4375 Z M 234.183594 162.671875 L 234.183594 158.644531 L 291.957031 158.644531 L 291.957031 162.671875 L 265.339844 162.671875 L 265.339844 234.351562 L 260.695312 234.351562 L 260.695312 162.671875 Z M 53.105469 158.644531 L 58.914062 158.644531 L 139.015625 278.503906 L 105.914062 234.355469 L 57.964844 164.371094 L 57.753906 234.355469 L 53.105469 234.355469 Z M 291.484375 229.109375 C 290.539062 229.109375 289.824219 228.371094 289.824219 227.421875 C 289.824219 226.46875 290.539062 225.734375 291.484375 225.734375 C 292.445312 225.734375 293.148438 226.46875 293.148438 227.421875 C 293.148438 228.371094 292.445312 229.109375 291.484375 229.109375 Z M 296.050781 224.667969 L 298.539062 224.667969 C 298.570312 226.019531 299.558594 226.921875 301 226.921875 C 302.617188 226.921875 303.53125 225.949219 303.53125 224.128906 L 303.53125 212.585938 L 306.066406 212.585938 L 306.066406 224.140625 C 306.066406 227.421875 304.167969 229.308594 301.027344 229.308594 C 298.078125 229.308594 296.050781 227.476562 296.050781 224.667969 Z M 309.378906 224.523438 L 311.890625 224.523438 C 312.101562 226.074219 313.617188 227.058594 315.800781 227.058594 C 317.832031 227.058594 319.324219 226.007812 319.324219 224.558594 C 319.324219 223.316406 318.375 222.5625 316.214844 222.054688 L 314.117188 221.546875 C 311.164062 220.859375 309.820312 219.429688 309.820312 217.03125 C 309.820312 214.121094 312.195312 212.191406 315.753906 212.191406 C 319.066406 212.191406 321.480469 214.121094 321.628906 216.875 L 319.164062 216.875 C 318.929688 215.367188 317.617188 214.425781 315.71875 214.425781 C 313.714844 214.425781 312.382812 215.394531 312.382812 216.863281 C 312.382812 218.027344 313.246094 218.695312 315.371094 219.195312 L 317.164062 219.632812 C 320.511719 220.417969 321.890625 221.777344 321.890625 224.226562 C 321.890625 227.351562 319.46875 229.308594 315.605469 229.308594 C 311.988281 229.308594 309.558594 227.445312 309.378906 224.523438 Z M 309.378906 224.523438 " fill-opacity="1" fill-rule="nonzero"/></g></svg>